<svg xmlns="http://www.w3.org/2000/svg" width="722.73" height="493.998" xmlns:v="https://vecta.io/nano"><style><![CDATA[.B{fill:#2f2e41}.C{fill:#ffb6b6}.D{fill:#e6e6e6}.E{fill:#a0616a}]]></style><path d="M251.111 473.199a2.81 2.81 0 0 1-2.035-4.866l.192-.765q-.038-.092-.076-.184a7.54 7.54 0 0 0-13.907.052c-2.275 5.478-5.17 10.966-5.883 16.758-.314 2.56-.182 5.156.392 7.671a89.42 89.42 0 0 1-8.134-37.139c-.001-3.217.178-6.431.535-9.628q.443-3.931 1.231-7.807c2.863-14.018 9.011-27.157 17.938-38.337 4.321-2.357 7.815-5.983 10.012-10.387.796-1.583 1.358-3.273 1.67-5.018-.487.064-1.838-7.359-1.47-7.815-.679-1.031-1.895-1.543-2.637-2.549-3.689-5.002-8.773-4.129-11.426 2.669-5.669 2.861-5.724 7.606-2.245 12.169 2.213 2.903 2.517 6.832 4.459 9.94l-.607.759a91.04 91.04 0 0 0-9.502 15.054c.649-5.956-.126-11.981-2.259-17.579-2.163-5.217-6.216-9.611-9.786-14.122-4.288-5.418-13.08-3.053-13.836 3.814q-.011.1-.021.199.795.449 1.557.952a3.81 3.81 0 0 1-1.535 6.93l-.078.012a37.89 37.89 0 0 0 .999 5.665c-4.579 17.71 5.307 24.16 19.424 24.45l.927.471c-2.681 7.596-4.362 15.509-5.002 23.539-.362 4.738-.341 9.497.064 14.231l-.024-.168a23.29 23.29 0 0 0-7.95-13.448c-6.118-5.026-14.762-6.877-21.363-10.917a4.37 4.37 0 0 0-6.694 4.252q.013.088.027.176a25.58 25.58 0 0 1 2.868 1.382q.795.449 1.557.952a3.81 3.81 0 0 1-1.535 6.93l-.078.012-.16.024c1.681 4.014 4.041 7.709 6.975 10.923 2.863 15.46 15.162 16.927 28.318 12.425h.008c1.443 6.272 3.535 12.378 6.24 18.218h22.293c.08-.248.152-.503.224-.751a25.33 25.33 0 0 1-6.169-.367l4.962-6.105c.037-.038.072-.078.104-.12l2.525-3.108v-.001a37.1 37.1 0 0 0-1.087-9.451z" fill="#f2f2f2"/><path d="M79.642 439.481l6.151 6.501 28.561-21.16-9.078-9.595-25.634 24.254z" class="E"/><path d="M89.722 443.077l-6.964-6.542-1.71-1.602-17.728 14.173 4.612 4.874 5.428-3.481-2.494 6.583 12.227 12.923a4 4 0 0 0 6.861-3.356l-2.639-17.071 4.65-4.397zM214.824 202.78l-1.95 21.29s-3.404 16.04-1.047 14.74-1.869 4.551-.756 9.626-9.507 42.914-4.697 38.994-2.78 23.16-7.58 36.52l-4.5 12.46-.91 2.51-5.83 15.74-.79 2.09c-.01.02-.01.04-.02.04-6.22 16.37-11.55 29.25-13.68 31.38-1.11 1.11-18.72 13.83-36.47 26.57l-37.41 26.77-17.54-18.4 1.21-.36 7.7-2.26c14.76-4.35-3.99-11.12 9.41-15.96 3.78-1.36 6.3-2.42 6.87-2.98 3.33-3.25 7.8-11 9.91-7.75s11.68-20.9 14.44-23.29c1.48-1.29 6.31-7.32 10.45-12.62l6.62-8.59.15-5.6.521-20.92.21-8.8.15-6.25.22-11.36c0-3.61 0-.8 2.85-2.98a12.89 12.89 0 0 0 1.21-1.08 14.59 14.59 0 0 0 1.68-1.79c.21-.45-1.1.16-2.8-.18-.921-.185-1.772-.621-2.46-1.26-3.58-3.22.28-13.12.28-13.12-8.14-16.28-7.55-29.63-3.74-39.92a51.21 51.21 0 0 1 13.21-19.35c2.222-2.118 4.644-4.017 7.23-5.67l.25-1.35 2.75-14.89a33.18 33.18 0 0 1 4.55-2.07c4.884-1.753 10.126-2.275 15.26-1.52a45.55 45.55 0 0 1 14.61 4.73c3.733 1.876 7.237 4.178 10.44 6.86z" class="B"/><path d="M138.02 472.651l8.911.829 7.509-34.744-13.153-1.223-3.267 35.138z" class="E"/><path d="M163.684 486.27l-13.24-11.09.6-6.38-3.08-.1-9.54-.31h-.01l-2.34-.08-3.97 22.34 6.69.62 1.77-6.2 2.47 6.6 3.54.33 14.17 1.32.37.02c1.14.001 2.225-.487 2.98-1.34.58-.635.935-1.443 1.01-2.3.119-1.307-.412-2.589-1.42-3.43zm23.87-131.61c-3.39 18.45-17.74 61.71-26.42 87.03l-6.71 19.4-4.5-1.42h-.01l-7.61-2.4-2.77-.88h-.01l-3.36-1.07.43-40.58-.17-23.1c-.18-7.11-.49-12.2-1-13.21-2.11-4.14 1.42-4.58 5.15-5.62 3.74-1.05.82-2.63-.63-5.99-.979-2.24.95-5.23 2.32-6.93a16.71 16.71 0 0 1 1.21-1.37l-1.84-.63 6.62-8.59.15-5.6.521-20.92.21-8.8 16.32 12.67c.012.01.02.024.02.04 12.11 9.57 21.2 17.25 22.48 19.69.58 1.1.38 4.04-.4 8.28z" class="B"/><path d="M485.683 28.893a6.43 6.43 0 0 1 6.979 5.627c.036.339.043.679.022 1.019l20.622 8.806-.787 12.036-26.945-15.118a6.41 6.41 0 0 1-5.482-5.584c-.179-1.617.292-3.239 1.309-4.509s2.497-2.083 4.114-2.262q.084-.009.168-.016z" class="C"/><path d="M625.984 103.19a18.9 18.9 0 0 0-2.79-6.53c-.371-.564-.775-1.105-1.21-1.62l-4.53-5.28-2.46-2.76c-4.53-4.97-7.5-7.6-8.86-7.82-.66-.11-1.31-.19-1.94-.27-3.229-.4-5.57-.69-5.64-4.1-.007-.489.026-.977.1-1.46a17.85 17.85 0 0 1 .53-2.4 10.54 10.54 0 0 0 .31-1.36c.1-.59.06-1.03-.26-1.3-.4-.33-1.07-.28-2.33.22-.2.08-.43.17-.67.28-.08.03-.16.07-.25.11a11.17 11.17 0 0 0-.52.24c-1.51.72-3.84.81-6.5.54-7.85-.8-18.47-4.76-18.6-4.81l-66.88-25.99-.62 1-1.47 2.38-.51.82-.58.94-2.53 4.08-1.28 2.06 21.6 16.29 2.35 1.77 2.021 1.53 41.24 31.11 15.38 10.15 3.43 2.26 14.62 9.64a18.86 18.86 0 0 0 26.4-5.76 18.91 18.91 0 0 0 2.45-13.96zm95.746 390.808H1a1 1 0 1 1 0-2h720.73a1 1 0 1 1 0 2z" class="D"/><path d="M164.915 166.791l1.874 17.382-1.102 22.792 50.485-5.997 4.743-34.177-6.044.06-49.956-.06z" class="C"/><path d="M207.858 110.649l-19-15h0l-9.974-.58-14.799 9.481-3.624 18.487-8.57 20.818 12.57 56.182s1.179 4.032-1.911 4.516-2.719 6.427-2.719 6.427.629 5.15-2.371 5.604-11 .454-4 9.454 62.366-25.039 62.366-25.039l8.041-42.194s15.595-20.946-1.2-32.942z" class="D"/><path d="M124.914 238.208a9.16 9.16 0 0 1 2.763-13.767l23.899-80.205 14.944 7.524-26.027 76.875a9.21 9.21 0 0 1-15.58 9.573z" class="E"/><path d="M167.517 103.808s-4.272-2.27-7.194 7.554c-2.339 7.865-21.321 54.713-21.563 66.103-3.213.681-5.557 3.452-5.696 6.733l23.469 3.145c4.101-3.459 5.177-8.131 3.59-9.517l5.096-13.917 21.258-44.279-15.843-14.235z" class="D"/><path d="M292.918 211.845a9.16 9.16 0 0 0-8.445-11.218l-54.824-62.613-11.63 13.877 56.711 58.061a9.21 9.21 0 0 0 18.187 1.894z" class="E"/><path d="M196.385 109.085s2.87-3.894 9.753 3.7c5.51 6.08 42.884 40.113 48.028 50.278 3.192-.776 6.503.709 8.048 3.608l-19.801 12.985c-5.193-1.345-8.184-5.092-7.353-7.029l-10.613-10.345-38.316-30.732 8.129-19.687z" class="D"/><circle cx="400.827" cy="140.998" r="140" fill="#c7c7c7"/><path d="M394.205 190.548c-13.355 13.355-35.009 13.355-48.364 0h0a34.21 34.21 0 0 1-4.622-42.617l-7.524 7.676c-13.355 13.355-13.355 35.009 0 48.364h0c13.355 13.355 35.009 13.355 48.364 0l16.673-17.313.254-1.076zm15.883-106.957c15.611-10.632 36.885-6.596 47.517 9.014h0a34.21 34.21 0 0 1-3.402 42.731l8.823-6.139c15.611-10.632 19.647-31.906 9.014-47.517h0c-10.632-15.611-31.906-19.647-47.517-9.014l-19.608 13.902-.45 1.01z" opacity=".2"/><path d="M357.877 218.267a37.2 37.2 0 0 1-26.304-63.502l31.568-32.208a37.2 37.2 0 0 1 52.628-.021 3 3 0 0 1-4.242 4.242c-12.184-12.184-31.938-12.184-44.122 0-4.637 16.346-14.655 27.562-31.568 32.208a31.2 31.2 0 1 0 44.101 44.144c-.684-6.706 1.276-13.01 16.634-17.272a3 3 0 1 1 4.321 4.162l-16.673 17.313c-6.966 7.021-16.453 10.959-26.343 10.936zm51.252-45.563c-9.871.027-19.343-3.897-26.304-10.896a3 3 0 1 1 4.243-4.242 31.2 31.2 0 0 0 44.121 0c3.998-24.084 20.298-27.483 34.467-34.466 12.184-12.184 12.184-31.938 0-44.122s-31.938-12.184-44.122 0c-3.941 11.371-7.811 22.876-19.55 19.55a3 3 0 0 1-4.242-4.242l19.55-19.55a37.2 37.2 0 0 1 52.606 52.606l-34.466 34.466c-6.961 6.999-16.432 10.922-26.303 10.895z" fill="#fff"/><path d="M522.464 69.75a142.54 142.54 0 0 0-21.07-27.49l-5.59-5.39-3.22-2.85a143.29 143.29 0 0 0-6.37-5.16C461.701 10.109 431.687-.035 400.824 0c-77.74 0-141 63.25-141 141a140.73 140.73 0 0 0 2.33 25.56c.002.047.009.094.021.14a139.57 139.57 0 0 0 2.61 11.44c14.766 54.09 60.179 94.29 115.66 102.384s110.487-17.457 140.09-65.074q2.925-4.71 5.5-9.66c22.258-42.949 20.91-94.317-3.57-136.04zM400.824 280c-36.869.013-72.232-14.628-98.302-40.698S261.812 177.869 261.824 141c0-76.65 62.36-139 139-139 37.469.021 73.342 15.173 99.48 42.02 3.374 3.445 6.559 7.07 9.54 10.86a134.83 134.83 0 0 1 8.25 11.57 138.93 138.93 0 0 1 16.2 113.41c-1.23 4.24-2.67 8.39-4.29 12.46-1.63 4.08-3.44 8.08-5.44 11.96-23.842 46.393-71.579 75.604-123.74 75.72z" fill="#3f3d56"/><path d="M592.636 472.969l-9.191-.078-4.069-36.279 13.566.115-.306 36.242z" class="C"/><path d="M595.074 468.729l-2.4-.16-9.79-.67-3.15-.21-.06 6.57-14.68 9.96a4.11 4.11 0 0 0 2.28 7.51l18.27.15 3.2-6.48 1.17 6.52 6.9.06z" class="B"/><path d="M689.407 466.253l-8.785 2.701-14.83-33.358 12.967-3.986 10.648 34.643z" class="C"/><path d="M690.454 461.479l-2.34.57-9.529 2.31-3.07.75 1.93 6.29-10.99 13.92c-.973 1.238-1.155 2.923-.467 4.34a4.12 4.12 0 0 0 3.698 2.32c.407-.001.811-.061 1.2-.18l17.47-5.37 1.09-7.15 3.09 5.86 6.591-2.03zM574.149 167.916l-17.54 50.974-.579 4.079c-4.42 4.196 1.132 5.579-.949 6.685s-3.482 4.209-.676 4.763 11.85 199.373 23.781 207.093 19.191 13.304 17 2c-.883-4.554.366-28.972 2.172-56.508.205-3.121 3.438-6.424.633-9.458s.346-5.031.522-7.549l5.422-71.456s18.594 63.857 23.423 58.914 2.917 7.228 4.393 10.865c1.233 3.039-4.028 9.009 3.704 9.101s25.89 62.162 27.732 62.092c3.649-.139 13.908.254 20-1 3.008-.619-10.345-47.613-21.496-88.193-.889-3.236-5.729-3.311-2.616-9.559s-12.374-46.674-11.045-48.544c3.528-4.963 4.871-7.12 1.392-7.445s-4.507 1.583-4.694-3.231l-.788-16.685s-2.52-46.949-20.166-72.888l-1.505-15.412z" class="B"/><path d="M617.969 70.594l-23.26 3.312-1.404 16.843-11.478 17.955s-25.514 17.955-7.72 46.318c-6.771 24.433-13.504 47.865-19.922 63.487-5 31 39.793 33.971 91 23 0 0-.706-13.255-5.353-19.628s-2.117-7.764-2.117-7.764l-3.247-11.905c1.837-17.208-4.367-18.753-7.283-26.704l8.853-82.494z" class="D"/><path d="M506.305 214.786a6.43 6.43 0 0 1 7.13-5.435c.337.046.67.12.995.221l13.474-17.924 11.5 3.637-21.112 22.558a6.41 6.41 0 0 1-6.731 3.991c-1.613-.212-3.075-1.057-4.066-2.348s-1.427-2.922-1.215-4.535q.011-.084.024-.167z" class="C"/><path d="M625.984 103.19c-.33-.41-.69-.81-1.07-1.2-5.406-5.571-13.677-7.255-20.83-4.24-.34.14-.68.3-1.01.46-11.95 5.87-18.4 9.78-19.18 11.61-.27.62-.5 1.23-.73 1.82-.22.58-.43 1.13-.65 1.63-.92 2.14-1.98 3.47-4.68 2.87-.895-.219-1.759-.552-2.57-.99-.37-.18-.71-.37-1.03-.55-1.16-.64-2-1.1-2.57-.68-.55.41-.57 1.45-.07 3.86a8.05 8.05 0 0 1-.08 3.03c-.661 2.905-1.697 5.712-3.08 8.35-2.073 4.136-4.404 8.137-6.98 11.98l-23.79 33.92-1.61 2.29-1.76 2.51-14.04 20.02.83.85 3.48 3.55.77.79.7.72 1.81 1.85 1.7 1.73 37.93-30.9 4.23-3.45 7.58-6.18 15.53-12.65 29.39-27.2c3.749-3.442 5.933-8.262 6.05-13.35 0-.17.01-.33.01-.5a18.69 18.69 0 0 0-4.28-11.95z" class="D"/><circle cx="604.004" cy="43.989" r="25.992" class="C"/><path d="M638.449 80.03a41.04 41.04 0 0 1 6.831 16.705c-2.811 1.798-6.084 2.743-9.421 2.719l-.356-1.311a37.51 37.51 0 0 0-4.273-9.599c.256 3.217-.18 6.451-1.279 9.486-1.763-.801-3.653-1.289-5.584-1.441-1.573 0-3.125.366-4.532 1.068l-4.209-13.986c-.032 8.968-13.176 16.786-27.518 15.653-.518-.324 4.678-15.07 4.176-15.41-1.149-.761-2.266-1.586-3.383-2.396 4.694-7.252 9.793-15.022 8.919-16.187.065 1.441-5.083 8.369-10.683 14.908-3.108-2.282 14.552-39.415 5.827-42.426-.146 1.311-2.072 1.311-4.419 1.036a23.95 23.95 0 0 0-2.736-6.135 14.41 14.41 0 0 1-.68 5.682 33.09 33.09 0 0 0-6.896.728c-.524-.825-1.103-1.615-1.732-2.363a14.07 14.07 0 0 1-.081 2.736c-2.315.502-4.225 1.084-4.5 1.554-1.813-.664 1.279-3.658.146-5.212-2.881-3.885 1.392-9.55 4.095-13.565 5.552-8.223 17.741-11.072 26.369-6.135.389-1.344 2.38-2.234 4.937-2.833 1.084-.239 2.193-.342 3.302-.308 11.007.194 26.288 9.275 26.887 20.266l.21 3.577c.777 12.302-.178 23.649 8.223 32.649 3.043 3.254 3.075 18.664 1.91 26.595-3.027-3.189-5.18-15.588-9.55-16.058z" class="B"/><g fill="#c7c7c7"><circle cx="352.184" cy="141.51" r="3"/><circle cx="447.184" cy="139.51" r="3"/></g><path d="M161.614 54.797c-2.283 5.686-8.724 16.868-9.597 22.968l.393-.386a27.54 27.54 0 0 0 2.545 3.639 17.69 17.69 0 0 1 6.007-4.13c-1.238 2.54-1.955 5.303-2.109 8.125 2.431 7.619 13.668 4.226 20.252 3.394 6.575 7.521 15.322 9.483 26.777 5.159 3.204.33 6.79.53 9.035-1.363s.908-5.399 2.116-8.05c8.603-18.887.664-25.701-6.082-34.265-1.485-1.885-1.478-4.697-3.285-6.495-2.506-2.492-6.348-3.259-9.89-3.873a5.37 5.37 0 0 0 4.715-2.333 4.84 4.84 0 0 0-.064-5.054c-1.267-2.1-3.899-3.322-6.439-3.627a24.45 24.45 0 0 0-7.452.641c-1.578.208-3.106.696-4.512 1.442-1.358.725-2.125 2.216-1.923 3.743.429 1.394 1.47 2.517 2.829 3.049a12.52 12.52 0 0 0 3.198.875 25.09 25.09 0 0 0-14.715 2.576c-5.677 3.028-9.508 8.283-11.799 13.966z" class="B"/><circle cx="192.353" cy="66.382" r="20.293" class="E"/><g class="B"><path d="M172.827 55.502c1.177 3.556 4.539 4.702 7.647 5.417l2.961.631 1.165-1.334a17.69 17.69 0 0 1 6.007-4.13c-.98 2.007-1.632 4.158-1.93 6.371q2.818.409 5.667.668a6.41 6.41 0 0 0 7.525-4.617c1.729 2.828 3.774 5.491 6.57 6.614a7.95 7.95 0 0 0 9.045-2.706 19.15 19.15 0 0 0 3.278-7.437c.794-3.149 1.234-6.777-.324-8.774-1.248-1.617-3.401-1.646-5.388-1.503a64.12 64.12 0 0 0-12.947 2.347l-.358.804c.726-4.361-.849-8.556-3.762-10.049-1.965-.998-4.329-.83-6.626-.628-2.951.132-5.866.695-8.653 1.673a16.62 16.62 0 0 0-7.842 6.263c-2.039 3.096-3.052 7.318-2.037 10.389z"/><path d="M201.756 36.535c-.2-.059.319.017.139.022a1.65 1.65 0 0 0 .266-.037c.015-.003.217-.067.083-.02a1.63 1.63 0 0 0 .774-.505 6.75 6.75 0 0 0 1.106-1.969 7.07 7.07 0 0 1 1.521-2.536 1.74 1.74 0 0 1 2.776.424 4.05 4.05 0 0 1-.248 2.81c-.291.892-.724 1.732-1.282 2.486a7.98 7.98 0 0 1-3.667 2.69c-1.687.613-3.526.665-5.245.15a1.27 1.27 0 0 1-.051-2.319l2.867-1.174c.635-.279 1.376.009 1.655.644s-.009 1.376-.644 1.655l-2.867 1.174-.051-2.319c.358.103.726.166 1.097.188.397.04.797.023 1.189-.05a5.21 5.21 0 0 0 1.1-.268c.228-.083.451-.178.67-.284q.119-.058.236-.12c-.006.003.328-.191.182-.1a7.08 7.08 0 0 0 1.039-.81 2.86 2.86 0 0 0 .312-.347c.163-.201.315-.411.454-.629a6.52 6.52 0 0 0 .666-1.476 6.61 6.61 0 0 0 .184-.663 2.72 2.72 0 0 1 .067-.365c.106-.286-.02.167.102.291l.528.389a.69.69 0 0 0 .591-.095q.094-.132-.041.044c-.105.138-.201.283-.287.433a11.85 11.85 0 0 0-.513 1.088c-.315.789-.714 1.542-1.19 2.247-.955 1.461-2.741 2.144-4.428 1.693-.642-.256-.96-.979-.715-1.625a1.28 1.28 0 0 1 1.625-.715z"/></g></svg>