<svg xmlns="http://www.w3.org/2000/svg" width="280" height="280" fill="none">
  <path fill="#C7C7C7" d="M140 280c77.32 0 140-62.68 140-140S217.32 0 140 0 0 62.68 0 140s62.68 140 140 140Z"/>
  <path fill="#fff" d="M97.05 217.269a37.202 37.202 0 0 1-26.304-63.502l31.568-32.208a37.186 37.186 0 0 1 26.31-10.916 37.189 37.189 0 0 1 26.318 10.895 2.998 2.998 0 0 1-.036 4.205 3 3 0 0 1-4.206.037c-12.184-12.184-31.938-12.184-44.122 0-4.637 16.346-14.655 27.562-31.568 32.208a31.209 31.209 0 0 0-9.295 22.099 31.195 31.195 0 0 0 9.128 22.169 31.195 31.195 0 0 0 34.14 6.721 31.218 31.218 0 0 0 10.128-6.845c-.684-6.706 1.276-13.01 16.634-17.272a3.004 3.004 0 0 1 3.275-.745 2.99 2.99 0 0 1 1.668 1.606 2.994 2.994 0 0 1-.622 3.301l-16.673 17.313a36.987 36.987 0 0 1-26.343 10.936v-.002Zm51.252-45.563a36.957 36.957 0 0 1-26.304-10.896 2.995 2.995 0 0 1-.896-2.126 3.006 3.006 0 0 1 1.858-2.786 2.99 2.99 0 0 1 2.308.009c.365.154.695.379.973.661a31.201 31.201 0 0 0 44.121 0c3.998-24.084 20.298-27.483 34.467-34.466 12.184-12.184 12.184-31.938 0-44.122-12.184-12.184-31.938-12.184-44.122 0-3.941 11.371-7.811 22.876-19.55 19.55a3 3 0 0 1-4.242-4.242l19.55-19.55a37.199 37.199 0 0 1 63.234 26.382 37.198 37.198 0 0 1-10.628 26.224l-34.466 34.466a36.955 36.955 0 0 1-26.303 10.896Z"/>
</svg>
